<svg width="100" height="100" viewBox="0 0 100 100" fill="none" xmlns="http://www.w3.org/2000/svg">
  <style>
    @media (prefers-color-scheme: light) {
    .background {
    fill: #101111;
    }
    .foreground {
    fill: #F9FAFA;
    }
    }
    @media (prefers-color-scheme: dark) {
    .background {
    fill: #F9FAFA;
    }
    .foreground {
    fill: #101111;
    }
    }
  </style>
  <g clip-path="url(#clip0_121_6)">
    <path
      d="M100 50C100 22.3858 77.6142 0 50 0C22.3858 0 0 22.3858 0 50C0 77.6142 22.3858 100 50 100C77.6142 100 100 77.6142 100 50Z"
      class="background" />
    <path
      d="M36.2564 20.2C37.4022 20.8676 38.7151 21.6545 40.1952 22.5605C41.6752 23.4666 43.1791 24.3965 44.7069 25.3502C46.2824 26.3039 47.7385 27.2337 49.0753 28.1398C50.4599 28.9982 51.6296 29.7612 52.5844 30.4288L47.2134 38.3687C46.2585 37.6534 45.0888 36.8427 43.7043 35.9367C42.3197 35.0306 40.8874 34.1007 39.4074 33.147C37.9274 32.1933 36.4474 31.2872 34.9673 30.4288C33.5351 29.5228 32.2221 28.736 31.0286 28.0683L36.2564 20.2ZM22.2074 70.258C24.9288 69.7811 27.6501 69.2089 30.3714 68.5413C33.1405 67.826 35.8857 66.9437 38.6071 65.8946C41.3761 64.8455 44.0497 63.6295 46.6278 62.2466C50.686 59.9576 54.4576 57.3825 57.9429 54.5213C61.4758 51.6601 64.6268 48.6081 67.3959 45.3654C70.2127 42.1227 72.576 38.8085 74.4857 35.4227L80 45.1508C76.658 50.1103 72.5283 54.7836 67.6108 59.1708C62.741 63.558 57.3699 67.4445 51.4976 70.8302C49.0627 72.2132 46.3891 73.5007 43.4768 74.6929C40.6123 75.885 37.7716 76.9103 34.9547 77.7687C32.1857 78.6747 29.7269 79.3185 27.5785 79.7L22.2074 70.258ZM25.2278 36.5089C26.4214 37.1765 27.7582 37.9634 29.2382 38.8694C30.766 39.7278 32.2938 40.6338 33.8215 41.5876C35.3493 42.5413 36.7816 43.4474 38.1184 44.3057C39.5029 45.1641 40.6487 45.9271 41.5558 46.5947L36.328 54.606C35.2777 53.8907 34.0841 53.104 32.7473 52.2456C31.4105 51.3396 29.9782 50.4097 28.4505 49.4559C26.9704 48.4545 25.4904 47.5246 24.0104 46.6662C22.5781 45.8079 21.2413 45.0687 20 44.4488L25.2278 36.5089Z"
      class="foreground" />
  </g>
  <defs>
    <clipPath id="clip0_121_6">
      <rect width="100" height="100" fill="white" />
    </clipPath>
  </defs>
</svg>