<svg width="100" height="100" viewBox="0 0 100 100" fill="none" xmlns="http://www.w3.org/2000/svg">
  <style>
    @media (prefers-color-scheme: light) {
    .background {
    fill: #101111;
    }
    .foreground {
    fill: #F9FAFA;
    }
    }
    @media (prefers-color-scheme: dark) {
    .background {
    fill: #F9FAFA;
    }
    .foreground {
    fill: #101111;
    }
    }
  </style>
  <g clip-path="url(#clip0_127_6)">
    <path
      d="M100 50C100 22.3858 77.6142 0 50 0C22.3858 0 0 22.3858 0 50C0 77.6142 22.3858 100 50 100C77.6142 100 100 77.6142 100 50Z"
      class="background" />
    <path
      d="M23.1695 56.5733C25.7647 57.5209 28.4076 58.386 31.0981 59.1685C33.8539 59.9336 36.6724 60.5422 39.5537 60.9943C42.4764 61.4703 45.3998 61.754 48.3239 61.8454C52.9829 61.8921 57.5368 61.5479 61.9857 60.8126C66.4759 60.1012 70.7307 59.0336 74.7502 57.6099L76.8729 67.3251C74.0484 68.2529 71.1019 69.0356 68.0336 69.6731C61.6226 71.0377 55.0279 71.7179 48.2494 71.7139C45.4493 71.6941 42.4901 71.4724 39.3719 71.0487C36.295 70.6488 33.3223 70.1164 30.4537 69.4514C27.6026 68.8515 25.1513 68.1796 23.1 67.4358L23.1695 56.5733Z"
      class="foreground" />
    <path
      d="M65.6438 34.8454C65.6885 33.1106 65.7134 31.5802 65.7187 30.2541L56.2906 29.6608C56.3092 31.0283 56.2843 32.5587 56.2157 34.2521C56.2124 35.963 56.1677 37.6978 56.0818 39.4564C55.9958 41.215 55.9067 42.9204 55.8143 44.5724C55.7219 46.2245 55.6047 47.6428 55.4626 48.8274L65.0243 49.5089C65.125 48.3482 65.2009 46.9537 65.252 45.3255C65.3683 43.7148 65.4455 41.9888 65.4837 40.1475C65.5458 38.3475 65.5992 36.5801 65.6438 34.8454Z"
      class="foreground" />
    <path
      d="M46.0415 33.5108C46.0862 31.7761 46.0992 30.225 46.0806 28.8575L36.5905 28.3C36.6743 29.685 36.7026 31.2122 36.6754 32.8818C36.672 34.5927 36.6067 36.3394 36.4795 38.1219C36.4174 39.9218 36.3282 41.6272 36.212 43.2379C36.137 44.8248 36.0524 46.2519 35.9581 47.5191L45.51 48.0409C45.6347 46.9215 45.7225 45.5477 45.7736 43.9194C45.8486 42.3326 45.9171 40.6391 45.9792 38.8392C46.0413 37.0392 46.062 35.2631 46.0415 33.5108Z"
      class="foreground" />
  </g>
  <defs>
    <clipPath id="clip0_127_6">
      <rect width="100" height="100" />
    </clipPath>
  </defs>
</svg>