<svg width="50" height="50" viewBox="0 0 50 50" fill="none" xmlns="http://www.w3.org/2000/svg">
  <rect width="50" height="50" rx="25" fill="#F9FAFA" />
  <path
    d="M18.1282 10C18.7011 10.3366 19.3576 10.7333 20.0976 11.1902C20.8376 11.647 21.5895 12.1159 22.3534 12.5967C23.1412 13.0776 23.8693 13.5465 24.5377 14.0033C25.2299 14.4361 25.8148 14.8208 26.2922 15.1574L23.6067 19.1607C23.1292 18.8 22.5444 18.3913 21.8521 17.9345C21.1599 17.4776 20.4437 17.0088 19.7037 16.5279C18.9637 16.047 18.2237 15.5902 17.4837 15.1574C16.7675 14.7006 16.1111 14.3038 15.5143 13.9672L18.1282 10ZM11.1037 35.2393C12.4644 34.9989 13.8251 34.7104 15.1857 34.3737C16.5703 34.0131 17.9429 33.5683 19.3035 33.0393C20.6881 32.5103 22.0249 31.8972 23.3139 31.2C25.343 30.0459 27.2288 28.7475 28.9714 27.3049C30.7379 25.8622 32.3134 24.3234 33.698 22.6884C35.1064 21.0535 36.288 19.3824 37.2429 17.6753L40 22.5802C38.329 25.0808 36.2641 27.4371 33.8054 29.6491C31.3705 31.8612 28.685 33.8207 25.7488 35.5278C24.5314 36.2251 23.1946 36.8743 21.7384 37.4754C20.3061 38.0765 18.8858 38.5934 17.4774 39.0262C16.0928 39.4831 14.8635 39.8076 13.7892 40L11.1037 35.2393ZM12.6139 18.223C13.2107 18.5596 13.8791 18.9563 14.6191 19.4132C15.383 19.8459 16.1469 20.3028 16.9108 20.7837C17.6746 21.2645 18.3908 21.7214 19.0592 22.1542C19.7515 22.5869 20.3244 22.9716 20.7779 23.3083L18.164 27.3476C17.6388 26.987 17.0421 26.5902 16.3737 26.1574C15.7053 25.7006 14.9891 25.2318 14.2252 24.7509C13.4852 24.246 12.7452 23.7771 12.0052 23.3443C11.2891 22.9115 10.6207 22.5389 10 22.2263L12.6139 18.223Z"
    fill="#101111" />
</svg>