<svg width="592" height="65" viewBox="0 0 592 65" fill="none" xmlns="http://www.w3.org/2000/svg">
  <style>
    path {
    fill: #101111;
    }
    @media (prefers-color-scheme: dark) {
    path {
    fill: #faf9f9;
    }
    }
  </style>

  <path
    d="M25.3022 42.8599H13.022V32.8462H25.3022C27.0329 32.8462 28.434 32.4616 29.5055 31.6923C30.5769 30.9231 31.3599 29.8654 31.8544 28.5192C32.3489 27.1456 32.5961 25.6072 32.5961 23.9039C32.5961 22.1731 32.3489 20.5522 31.8544 19.0412C31.3599 17.5302 30.5769 16.3214 29.5055 15.4148C28.434 14.4808 27.0329 14.0137 25.3022 14.0137H16.9368V64H4.86261V4.00001H25.3022C29.3406 4.00001 32.8022 4.85166 35.6868 6.55496C38.5989 8.25825 40.8379 10.6072 42.4038 13.6017C43.9698 16.5687 44.7527 19.9753 44.7527 23.8214C44.7527 27.6951 43.9698 31.0605 42.4038 33.9176C40.8379 36.7473 38.5989 38.9451 35.6868 40.511C32.8022 42.0769 29.3406 42.8599 25.3022 42.8599Z"
  />
  <path
    d="M63.7912 29.3434V64H52.2527V19.4121H63.1318L63.7912 29.3434ZM74.2994 19.0824L74.1346 30.5797C73.6126 30.4698 72.9808 30.3874 72.239 30.3324C71.5247 30.2775 70.8928 30.25 70.3434 30.25C69.0522 30.25 67.9533 30.4561 67.0467 30.8681C66.1401 31.2528 65.3846 31.8434 64.7802 32.6401C64.2033 33.4094 63.7637 34.3709 63.4615 35.5247C63.1593 36.6786 62.9807 37.9835 62.9258 39.4396L60.7417 38.6154C60.7417 35.7033 60.9615 33.0385 61.4011 30.6209C61.8681 28.1758 62.5549 26.0605 63.4615 24.2747C64.3681 22.4615 65.4533 21.0605 66.717 20.0714C68.0082 19.0824 69.4643 18.5879 71.0851 18.5879C71.6346 18.5879 72.2115 18.6429 72.8159 18.7528C73.4478 18.8352 73.9423 18.9451 74.2994 19.0824Z"
  />
  <path
    d="M77.3901 43.2308V40.2225C77.3901 36.7335 77.8022 33.6429 78.6264 30.9506C79.478 28.2583 80.6868 26.0055 82.2527 24.1923C83.8187 22.3517 85.7005 20.9643 87.8983 20.0302C90.1236 19.0687 92.6099 18.5879 95.3571 18.5879C98.1319 18.5879 100.618 19.0687 102.816 20.0302C105.041 20.9643 106.937 22.3517 108.503 24.1923C110.096 26.0055 111.319 28.2583 112.17 30.9506C113.022 33.6429 113.448 36.7335 113.448 40.2225V43.2308C113.448 46.6923 113.022 49.7692 112.17 52.4616C111.319 55.1539 110.096 57.4203 108.503 59.261C106.937 61.1017 105.055 62.489 102.857 63.4231C100.659 64.3572 98.1868 64.8242 95.4395 64.8242C92.6923 64.8242 90.206 64.3572 87.9808 63.4231C85.783 62.489 83.8873 61.1017 82.2939 59.261C80.7005 57.4203 79.478 55.1539 78.6264 52.4616C77.8022 49.7692 77.3901 46.6923 77.3901 43.2308ZM88.9286 40.2225V43.2308C88.9286 45.2912 89.0659 47.0769 89.3406 48.5879C89.6428 50.0989 90.0687 51.3489 90.6181 52.3379C91.195 53.3269 91.8819 54.055 92.6786 54.522C93.4753 54.989 94.3956 55.2225 95.4395 55.2225C96.4835 55.2225 97.4176 54.989 98.2417 54.522C99.0659 54.055 99.739 53.3269 100.261 52.3379C100.81 51.3489 101.209 50.0989 101.456 48.5879C101.731 47.0769 101.868 45.2912 101.868 43.2308V40.2225C101.868 38.217 101.717 36.4588 101.415 34.9478C101.113 33.4094 100.687 32.1594 100.137 31.1978C99.5879 30.2088 98.9011 29.467 98.0769 28.9725C97.2802 28.4506 96.3736 28.1896 95.3571 28.1896C94.3406 28.1896 93.4341 28.4506 92.6373 28.9725C91.8681 29.467 91.195 30.2088 90.6181 31.1978C90.0687 32.1594 89.6428 33.4094 89.3406 34.9478C89.0659 36.4588 88.9286 38.217 88.9286 40.2225Z"
  />
  <path
    d="M142.335 54.1511V0.703308H153.915V64L143.448 64.0412L142.335 54.1511ZM119.217 43.272V40.305C119.217 36.6786 119.519 33.5055 120.124 30.7857C120.755 28.0659 121.69 25.7995 122.926 23.9863C124.162 22.1731 125.673 20.8269 127.459 19.9478C129.272 19.0412 131.346 18.5879 133.681 18.5879C135.797 18.5879 137.651 19.1236 139.244 20.1951C140.865 21.239 142.239 22.7088 143.365 24.6044C144.492 26.5 145.398 28.739 146.085 31.3214C146.772 33.9039 147.253 36.7335 147.527 39.8105V44.0962C147.198 47.0083 146.69 49.728 146.003 52.2555C145.343 54.783 144.437 56.9808 143.283 58.8489C142.157 60.717 140.797 62.1868 139.203 63.2583C137.61 64.3022 135.755 64.8242 133.64 64.8242C131.305 64.8242 129.231 64.3572 127.418 63.4231C125.632 62.489 124.121 61.1154 122.885 59.3022C121.676 57.4616 120.755 55.2088 120.124 52.544C119.519 49.8517 119.217 46.761 119.217 43.272ZM130.755 40.305V43.272C130.755 45.3599 130.852 47.1594 131.044 48.6703C131.264 50.1539 131.607 51.3764 132.074 52.3379C132.569 53.272 133.214 53.9725 134.011 54.4396C134.808 54.8791 135.797 55.0989 136.978 55.0989C138.516 55.0989 139.766 54.7143 140.728 53.9451C141.69 53.1484 142.404 52.0632 142.871 50.6896C143.365 49.2885 143.64 47.6813 143.695 45.8681V38.0797C143.64 36.5687 143.462 35.2088 143.159 34C142.857 32.7912 142.431 31.761 141.882 30.9094C141.332 30.0577 140.646 29.3984 139.821 28.9313C139.025 28.4643 138.091 28.2308 137.019 28.2308C135.865 28.2308 134.876 28.4643 134.052 28.9313C133.255 29.3984 132.624 30.1264 132.157 31.1154C131.69 32.0769 131.332 33.3269 131.085 34.8654C130.865 36.3764 130.755 38.1896 130.755 40.305Z"
  />
  <path
    d="M184.162 53.2857V19.4121H195.742V64H184.863L184.162 53.2857ZM185.481 44.0962L188.695 44.0137C188.695 47.0083 188.407 49.783 187.83 52.3379C187.253 54.8654 186.387 57.0632 185.234 58.9313C184.107 60.7995 182.665 62.2555 180.907 63.2995C179.176 64.3159 177.129 64.8242 174.766 64.8242C172.953 64.8242 171.277 64.522 169.739 63.9176C168.228 63.2857 166.923 62.3105 165.824 60.9918C164.725 59.6456 163.86 57.9286 163.228 55.8407C162.624 53.7253 162.321 51.1978 162.321 48.2583V19.4121H173.901V48.3407C173.901 49.5495 173.997 50.5934 174.19 51.4725C174.409 52.3242 174.712 53.0247 175.096 53.5742C175.508 54.1236 175.975 54.522 176.497 54.7692C177.019 54.989 177.61 55.0989 178.269 55.0989C180.082 55.0989 181.511 54.6319 182.555 53.6978C183.626 52.7363 184.382 51.4313 184.821 49.783C185.261 48.1072 185.481 46.2116 185.481 44.0962Z"
  />
  <path
    d="M220.261 55.2225C221.332 55.2225 222.253 55.0028 223.022 54.5632C223.819 54.1236 224.423 53.4094 224.835 52.4203C225.247 51.4313 225.467 50.1539 225.495 48.5879H236.332C236.332 51.9396 235.618 54.8379 234.19 57.283C232.788 59.7006 230.893 61.5687 228.503 62.8874C226.14 64.1786 223.462 64.8242 220.467 64.8242C217.473 64.8242 214.863 64.3434 212.637 63.3819C210.412 62.4203 208.571 61.0192 207.115 59.1786C205.687 57.3379 204.602 55.0989 203.86 52.4616C203.146 49.7967 202.788 46.7473 202.788 43.3132V40.0577C202.788 36.6786 203.146 33.6566 203.86 30.9918C204.602 28.3269 205.687 26.0742 207.115 24.2335C208.571 22.3929 210.398 20.9918 212.596 20.0302C214.821 19.0687 217.431 18.5879 220.426 18.5879C223.64 18.5879 226.429 19.261 228.791 20.6072C231.154 21.9258 232.995 23.8764 234.313 26.4588C235.659 29.0412 236.332 32.228 236.332 36.0192H225.495C225.467 34.3159 225.261 32.9011 224.876 31.7747C224.519 30.6209 223.956 29.7418 223.187 29.1374C222.445 28.5055 221.456 28.1896 220.22 28.1896C218.929 28.1896 217.885 28.4643 217.088 29.0137C216.319 29.5357 215.728 30.305 215.316 31.3214C214.931 32.3105 214.67 33.5467 214.533 35.0302C214.396 36.5137 214.327 38.1896 214.327 40.0577V43.3132C214.327 45.3187 214.382 47.0632 214.492 48.5467C214.629 50.0028 214.89 51.239 215.275 52.2555C215.687 53.2445 216.277 53.9863 217.047 54.4808C217.843 54.9753 218.915 55.2225 220.261 55.2225Z"
  />
  <path
    d="M262.418 19.4121V28.1072H239.67V19.4121H262.418ZM244.904 8.40935H256.401V50.4011C256.401 51.6099 256.525 52.5577 256.772 53.2445C257.019 53.9039 257.39 54.3709 257.885 54.6456C258.407 54.8929 259.08 55.0165 259.904 55.0165C260.508 55.0165 261.058 54.989 261.552 54.9341C262.047 54.8517 262.418 54.7692 262.665 54.6868V63.7116C261.758 64.0687 260.797 64.3434 259.78 64.5357C258.791 64.728 257.61 64.8242 256.236 64.8242C253.929 64.8242 251.923 64.3984 250.22 63.5467C248.544 62.6676 247.239 61.2528 246.305 59.3022C245.371 57.3517 244.904 54.7967 244.904 51.6374V8.40935Z"
  />
  <path
    d="M280.962 19.4121V64H269.382V19.4121H280.962ZM268.846 7.83243C268.846 6.04671 269.409 4.57693 270.536 3.42309C271.69 2.26924 273.242 1.69232 275.192 1.69232C277.115 1.69232 278.64 2.26924 279.766 3.42309C280.893 4.57693 281.456 6.04671 281.456 7.83243C281.456 9.61814 280.893 11.1017 279.766 12.283C278.64 13.4368 277.115 14.0137 275.192 14.0137C273.242 14.0137 271.69 13.4368 270.536 12.283C269.409 11.1017 268.846 9.61814 268.846 7.83243Z"
  />
  <path
    d="M303.255 55.0989L310.426 19.4121H322.459L310.22 64H303.008L303.255 55.0989ZM299.011 19.4121L306.305 55.1401L306.429 64H299.176L286.937 19.4121H299.011Z"
  />
  <path
    d="M347.019 53.739V33.1346C347.019 31.7885 346.854 30.717 346.525 29.9203C346.223 29.1236 345.755 28.5467 345.124 28.1896C344.519 27.805 343.777 27.6126 342.898 27.6126C341.909 27.6126 341.085 27.8187 340.426 28.2308C339.767 28.6429 339.272 29.2335 338.942 30.0028C338.64 30.772 338.489 31.6923 338.489 32.7637H326.909C326.909 30.8407 327.28 29.0275 328.022 27.3242C328.764 25.5934 329.849 24.0824 331.277 22.7912C332.734 21.4725 334.464 20.4423 336.47 19.7006C338.475 18.9588 340.728 18.5879 343.228 18.5879C346.195 18.5879 348.832 19.0962 351.14 20.1126C353.448 21.1017 355.275 22.6813 356.621 24.8517C357.967 27.022 358.64 29.8379 358.64 33.2995V53.1621C358.64 55.6621 358.764 57.6951 359.011 59.261C359.286 60.8269 359.684 62.1731 360.206 63.2995V64H348.585C348.063 62.7637 347.665 61.2253 347.39 59.3846C347.143 57.5165 347.019 55.6346 347.019 53.739ZM348.42 36.761L348.462 43.6841H344.217C343.118 43.6841 342.157 43.8627 341.332 44.2198C340.536 44.5769 339.863 45.0852 339.313 45.7445C338.764 46.3764 338.352 47.1181 338.077 47.9698C337.83 48.8214 337.706 49.728 337.706 50.6896C337.706 51.761 337.857 52.6676 338.159 53.4094C338.462 54.1511 338.915 54.7143 339.519 55.0989C340.124 55.4835 340.838 55.6758 341.662 55.6758C342.926 55.6758 344.025 55.4148 344.959 54.8929C345.893 54.3709 346.58 53.739 347.019 52.9973C347.486 52.2555 347.637 51.5687 347.473 50.9368L350.11 55.4286C349.78 56.4451 349.327 57.5028 348.75 58.6017C348.201 59.7006 347.5 60.717 346.648 61.6511C345.797 62.5852 344.739 63.3544 343.475 63.9588C342.239 64.5357 340.769 64.8242 339.066 64.8242C336.676 64.8242 334.492 64.2747 332.514 63.1758C330.536 62.0769 328.97 60.5385 327.816 58.5605C326.69 56.5824 326.126 54.2335 326.126 51.5137C326.126 49.261 326.484 47.228 327.198 45.4148C327.94 43.5742 329.038 42.022 330.495 40.7583C331.951 39.467 333.791 38.478 336.017 37.7912C338.242 37.1044 340.852 36.761 343.846 36.761H348.42Z"
  />
  <path
    d="M391.113 4.00001H398.448L414.148 52.9148L429.808 4.00001H437.143L416.992 64H411.223L391.113 4.00001ZM388.723 4.00001H395.151L396.264 40.5934V64H388.723V4.00001ZM433.063 4.00001H439.492V64H431.951V40.5934L433.063 4.00001Z"
  />
  <path
    d="M467.473 64.8242C464.808 64.8242 462.404 64.4258 460.261 63.6291C458.118 62.8324 456.291 61.6236 454.78 60.0028C453.269 58.3544 452.115 56.2802 451.319 53.7802C450.522 51.2802 450.124 48.3269 450.124 44.9203V39.8929C450.124 35.9643 450.577 32.6401 451.484 29.9203C452.418 27.2006 453.668 25.0165 455.234 23.3681C456.799 21.6923 458.571 20.4835 460.549 19.7418C462.527 18.9725 464.56 18.5879 466.648 18.5879C469.451 18.5879 471.841 19.0412 473.819 19.9478C475.797 20.8544 477.404 22.2006 478.64 23.9863C479.876 25.772 480.783 27.9698 481.36 30.5797C481.964 33.1896 482.267 36.1978 482.267 39.6044V43.8489H454.409V37.6264H474.973V36.5962C474.863 34.2885 474.547 32.2555 474.025 30.4973C473.53 28.739 472.706 27.3654 471.552 26.3764C470.398 25.3599 468.764 24.8517 466.648 24.8517C465.302 24.8517 464.052 25.0852 462.898 25.5522C461.772 25.9918 460.797 26.7747 459.973 27.9011C459.176 29 458.544 30.5247 458.077 32.4753C457.637 34.4258 457.418 36.8984 457.418 39.8929V44.9203C457.418 47.3105 457.637 49.3709 458.077 51.1017C458.544 52.805 459.217 54.2198 460.096 55.3462C461.003 56.4451 462.102 57.2692 463.393 57.8187C464.712 58.3407 466.209 58.6017 467.885 58.6017C470.33 58.6017 472.349 58.1346 473.942 57.2006C475.536 56.239 476.923 55.0165 478.104 53.533L481.937 58.1072C481.14 59.2335 480.096 60.3187 478.805 61.3627C477.541 62.3791 475.975 63.217 474.107 63.8764C472.267 64.5083 470.055 64.8242 467.473 64.8242Z"
  />
  <path
    d="M498.379 28.9313V64H491.085V19.4121H497.967L498.379 28.9313ZM496.607 40.0165L493.64 39.8929C493.613 36.8434 493.956 34.0275 494.67 31.4451C495.412 28.8352 496.456 26.5687 497.802 24.6456C499.176 22.7225 500.81 21.239 502.706 20.1951C504.602 19.1236 506.703 18.5879 509.011 18.5879C510.824 18.5879 512.473 18.8901 513.956 19.4945C515.44 20.0714 516.703 21.0055 517.747 22.2967C518.791 23.5879 519.588 25.2637 520.137 27.3242C520.714 29.3572 521.003 31.8434 521.003 34.783V64H513.709V34.7006C513.709 32.3654 513.448 30.4973 512.926 29.0962C512.431 27.6676 511.662 26.6374 510.618 26.0055C509.602 25.3462 508.31 25.0165 506.745 25.0165C505.316 25.0165 503.984 25.4148 502.747 26.2115C501.511 27.0083 500.426 28.1072 499.492 29.5083C498.585 30.9094 497.871 32.5165 497.349 34.3297C496.854 36.1154 496.607 38.011 496.607 40.0165Z"
  />
  <path
    d="M548.242 19.4121V25.2637H527.431V19.4121H548.242ZM534.231 8.57419H541.525V52.9561C541.525 54.467 541.703 55.6072 542.06 56.3764C542.445 57.1456 542.926 57.6539 543.503 57.9011C544.08 58.1484 544.698 58.272 545.357 58.272C545.852 58.272 546.401 58.217 547.006 58.1072C547.61 57.9698 548.022 57.8599 548.242 57.7775L548.201 64C547.706 64.1923 547.047 64.3709 546.223 64.5357C545.398 64.728 544.354 64.8242 543.091 64.8242C541.525 64.8242 540.069 64.4533 538.723 63.7116C537.376 62.9698 536.291 61.7335 535.467 60.0028C534.643 58.2445 534.231 55.8819 534.231 52.9148V8.57419Z"
  />
  <path
    d="M572.885 64.8242C570.22 64.8242 567.816 64.4258 565.673 63.6291C563.53 62.8324 561.703 61.6236 560.192 60.0028C558.681 58.3544 557.528 56.2802 556.731 53.7802C555.934 51.2802 555.536 48.3269 555.536 44.9203V39.8929C555.536 35.9643 555.989 32.6401 556.896 29.9203C557.83 27.2006 559.08 25.0165 560.646 23.3681C562.212 21.6923 563.984 20.4835 565.962 19.7418C567.94 18.9725 569.973 18.5879 572.06 18.5879C574.863 18.5879 577.253 19.0412 579.231 19.9478C581.209 20.8544 582.816 22.2006 584.052 23.9863C585.289 25.772 586.195 27.9698 586.772 30.5797C587.376 33.1896 587.679 36.1978 587.679 39.6044V43.8489H559.821V37.6264H580.385V36.5962C580.275 34.2885 579.959 32.2555 579.437 30.4973C578.942 28.739 578.118 27.3654 576.964 26.3764C575.81 25.3599 574.176 24.8517 572.06 24.8517C570.714 24.8517 569.464 25.0852 568.31 25.5522C567.184 25.9918 566.209 26.7747 565.385 27.9011C564.588 29 563.956 30.5247 563.489 32.4753C563.049 34.4258 562.83 36.8984 562.83 39.8929V44.9203C562.83 47.3105 563.049 49.3709 563.489 51.1017C563.956 52.805 564.629 54.2198 565.508 55.3462C566.415 56.4451 567.514 57.2692 568.805 57.8187C570.124 58.3407 571.621 58.6017 573.297 58.6017C575.742 58.6017 577.761 58.1346 579.354 57.2006C580.948 56.239 582.335 55.0165 583.517 53.533L587.349 58.1072C586.552 59.2335 585.508 60.3187 584.217 61.3627C582.953 62.3791 581.387 63.217 579.519 63.8764C577.679 64.5083 575.467 64.8242 572.885 64.8242Z"
  />
</svg>