<svg
  width="333"
  height="500"
  viewBox="0 0 333 500"
  fill="none"
  xmlns="http://www.w3.org/2000/svg"
>
  <style>
    path {
    fill: #101111;
    }
    @media (prefers-color-scheme: dark) {
    path {
    fill: #faf9f9;
    }
    }
  </style>
  <path
    d="M170.179 323.832H100.529V240.385H170.179C184.589 240.385 196.255 237.179 205.175 230.769C214.096 224.359 220.615 215.545 224.732 204.327C228.849 192.88 230.908 180.06 230.908 165.865C230.908 151.442 228.849 137.935 224.732 125.343C220.615 112.752 214.096 102.679 205.175 95.1236C196.255 87.3397 184.589 83.4478 170.179 83.4478H100.529V500H0V0H170.179C203.803 0 232.624 7.09707 256.641 21.2912C280.887 35.4853 299.529 55.0595 312.567 80.0137C325.604 104.739 332.123 133.127 332.123 165.179C332.123 197.459 325.604 225.504 312.567 249.313C299.529 272.894 280.887 291.209 256.641 304.258C232.624 317.308 203.803 323.832 170.179 323.832Z"
  />
</svg>